<!DOCTYPE svg PUBLIC "-//W3C//DTD SVG 1.1//EN" "http://www.w3.org/Graphics/SVG/1.1/DTD/svg11.dtd">
<!-- Uploaded to: SVG Repo, www.svgrepo.com, Transformed by: SVG Repo Mixer Tools -->
<svg fill="#000000" width="800px" height="800px" viewBox="0 0 24 24" id="blunted-cone" data-name="Flat Line" xmlns="http://www.w3.org/2000/svg" class="icon flat-line">
<g id="SVGRepo_bgCarrier" stroke-width="0"/>
<g id="SVGRepo_tracerCarrier" stroke-linecap="round" stroke-linejoin="round"/>
<g id="SVGRepo_iconCarrier">
<path id="secondary" d="M20,18c0,1.66-3.58,3-8,3s-8-1.34-8-3,3.58-3,8-3S20,16.34,20,18ZM12,3C9.24,3,7,3.9,7,5s2.24,2,5,2,5-.9,5-2S14.76,3,12,3Z" style="fill: #12b76a; stroke-width: 2;"/>
<path id="primary" d="M20,18c0,1.66-3.58,3-8,3s-8-1.34-8-3,3.58-3,8-3S20,16.34,20,18Zm0-.25L17,4.8c-.25-1-2.38-1.8-5-1.8s-4.72.79-5,1.8l-3,13A1.07,1.07,0,0,0,4,18c0,1.66,3.58,3,8,3s8-1.34,8-3A1.07,1.07,0,0,0,20,17.75ZM12,3C9.24,3,7,3.9,7,5s2.24,2,5,2,5-.9,5-2S14.76,3,12,3Z" style="fill: none; stroke: #000000; stroke-linecap: round; stroke-linejoin: round; stroke-width: 2;"/>
</g>
</svg>